<svg
 xmlns="http://www.w3.org/2000/svg"
 xmlns:xlink="http://www.w3.org/1999/xlink"
 width="29px" height="32px">
<defs>
<linearGradient id="PSgrad_0" x1="0%" x2="0%" y1="100%" y2="0%">
  <stop offset="0%" stop-color="rgb(15,216,80)" stop-opacity="1" />
  <stop offset="100%" stop-color="rgb(46,242,109)" stop-opacity="1" />
</linearGradient>

</defs>
<path fill-rule="evenodd"  fill="url(#PSgrad_0)"
 d="M27.162,23.450 C26.147,23.450 25.324,22.666 25.324,21.700 C25.324,20.733 26.147,19.950 27.162,19.950 C28.177,19.950 29.000,20.733 29.000,21.700 C29.000,22.666 28.177,23.450 27.162,23.450 ZM21.624,27.950 C20.164,27.950 18.981,26.831 18.981,25.450 C18.981,24.069 20.164,22.950 21.624,22.950 C23.084,22.950 24.267,24.069 24.267,25.450 C24.267,26.831 23.084,27.950 21.624,27.950 ZM14.500,32.000 C12.609,32.000 11.076,30.534 11.076,28.725 C11.076,26.916 12.609,25.450 14.500,25.450 C16.391,25.450 17.924,26.916 17.924,28.725 C17.924,30.534 16.391,32.000 14.500,32.000 ZM14.500,22.550 C12.609,22.550 11.076,21.083 11.076,19.275 C11.076,17.466 12.609,16.000 14.500,16.000 C16.391,16.000 17.924,17.466 17.924,19.275 C17.924,21.083 16.391,22.550 14.500,22.550 ZM14.500,12.550 C12.887,12.550 11.580,11.319 11.580,9.800 C11.580,8.281 12.887,7.050 14.500,7.050 C16.113,7.050 17.420,8.281 17.420,9.800 C17.420,11.319 16.113,12.550 14.500,12.550 ZM14.500,3.550 C13.471,3.550 12.637,2.755 12.637,1.775 C12.637,0.795 13.471,-0.000 14.500,-0.000 C15.529,-0.000 16.363,0.795 16.363,1.775 C16.363,2.755 15.529,3.550 14.500,3.550 ZM7.376,28.150 C5.916,28.150 4.733,27.020 4.733,25.625 C4.733,24.231 5.916,23.100 7.376,23.100 C8.836,23.100 10.019,24.231 10.019,25.625 C10.019,27.020 8.836,28.150 7.376,28.150 ZM1.838,23.600 C0.823,23.600 -0.000,22.816 -0.000,21.850 C-0.000,20.884 0.823,20.100 1.838,20.100 C2.853,20.100 3.675,20.884 3.675,21.850 C3.675,22.816 2.853,23.600 1.838,23.600 Z"/>
</svg>
