<svg xmlns="http://www.w3.org/2000/svg" xmlns:xlink="http://www.w3.org/1999/xlink" width="270.03" height="88.03" viewBox="0 0 270.03 88.03">
<defs>
    <style>
      .cls-1 {
        fill: #fff;
      }

      .cls-1, .cls-2 {
        fill-rule: evenodd;
      }

      .cls-2 {
        fill: url(#radial-gradient);
      }
    </style>
    <radialGradient id="radial-gradient" cx="1787.5" cy="4665.985" r="44.015" gradientUnits="userSpaceOnUse">
      <stop offset="0" stop-color="#2ef26d"/>
      <stop offset="1" stop-color="#0fd850"/>
    </radialGradient>
  </defs>
  <path id="Adriano" class="cls-1" d="M1860,4672.6a0.824,0.824,0,0,1,.03-0.27l6.28-26.43a1.077,1.077,0,0,1,1.17-.9,1.117,1.117,0,0,1,1.19.9l6.27,26.49a0.448,0.448,0,0,0,.01.11,0.738,0.738,0,0,1,.02.12,0.968,0.968,0,0,1-.4.76,1.269,1.269,0,0,1-.81.31,0.754,0.754,0,0,1-.75-0.66l-1.38-6h-8.3l-1.39,6a0.728,0.728,0,0,1-.79.66,1.181,1.181,0,0,1-.79-0.31A1,1,0,0,1,1860,4672.6Zm3.84-7.79h7.28l-3.63-15.72Zm23.06,7.91v-26.55a0.962,0.962,0,0,1,.25-0.67,0.86,0.86,0,0,1,.65-0.27h5.32a5.686,5.686,0,0,1,4.56,2.01c1.15,1.33,1.72,3.43,1.72,6.28v11.84q0,4.32-1.72,6.33a5.708,5.708,0,0,1-4.56,2h-5.32a0.843,0.843,0,0,1-.65-0.29A1,1,0,0,1,1886.9,4672.72Zm1.98-1.4h4.24a3.736,3.736,0,0,0,3.17-1.5,7.389,7.389,0,0,0,1.12-4.46v-11.84a7.248,7.248,0,0,0-1.12-4.43,3.746,3.746,0,0,0-3.17-1.48h-4.24v23.71Zm23.86,1.36v-26.51a0.812,0.812,0,0,1,.75-0.94h5.32a6.363,6.363,0,0,1,4.7,1.79q1.785,1.8,1.79,5.88,0,6.465-4.69,7.52l4.63,11.52a0.949,0.949,0,0,1,.12.5,1.353,1.353,0,0,1-.36.92,1.048,1.048,0,0,1-.78.41c-0.36,0-.71-0.46-1.05-1.36l-4.63-11.68h-3.82v11.95a0.95,0.95,0,0,1-.3.74,1,1,0,0,1-.69.27,0.974,0.974,0,0,1-.7-0.27A0.943,0.943,0,0,1,1912.74,4672.68Zm1.98-14.17h4.09c3,0,4.51-1.83,4.51-5.49,0-3.61-1.51-5.41-4.51-5.41h-4.09v10.9Zm22.93,14.17v-26.51a1,1,0,0,1,1.99,0v26.51a0.957,0.957,0,0,1-.31.74,1,1,0,0,1-.69.27A0.959,0.959,0,0,1,1937.65,4672.68Zm13.92-.08a0.824,0.824,0,0,1,.03-0.27l6.28-26.43a1.067,1.067,0,0,1,1.16-.9,1.12,1.12,0,0,1,1.2.9l6.26,26.49a0.516,0.516,0,0,0,.02.11,0.574,0.574,0,0,1,.01.12,0.957,0.957,0,0,1-.39.76,1.269,1.269,0,0,1-.81.31,0.754,0.754,0,0,1-.75-0.66l-1.38-6h-8.31l-1.39,6a0.719,0.719,0,0,1-.78.66,1.162,1.162,0,0,1-.79-0.31A1,1,0,0,1,1951.57,4672.6Zm3.84-7.79h7.27l-3.62-15.72Zm23.05,7.87v-26.47a0.872,0.872,0,0,1,.99-0.98c0.56,0,1.08.6,1.57,1.79l8.11,20.71v-21.56a0.991,0.991,0,0,1,1.98,0v26.51a0.95,0.95,0,0,1-.3.74,1,1,0,0,1-.69.27c-0.5,0-.94-0.49-1.32-1.48l-8.36-21.06v21.53a0.95,0.95,0,0,1-.3.74,1,1,0,0,1-.69.27A0.959,0.959,0,0,1,1978.46,4672.68Zm26-7.09v-12.07c0-2.85.56-4.95,1.69-6.28a6.166,6.166,0,0,1,9.11,0c1.13,1.33,1.7,3.43,1.7,6.28v12.07q0,4.32-1.7,6.33a6.187,6.187,0,0,1-9.11,0Q2004.455,4669.91,2004.46,4665.59Zm1.98,0q0,5.955,4.27,5.96t4.26-5.96v-12.07q0-5.91-4.26-5.91-4.275,0-4.27,5.91v12.07Zm-146.38,16.99v-3.82a2.828,2.828,0,0,1,.5-1.84,1.648,1.648,0,0,1,1.3-.59,1.6,1.6,0,0,1,1.29.55,2,2,0,0,1,.46,1.3c0,0.22-.06.33-0.17,0.33s-0.16-.07-0.16-0.21a2.515,2.515,0,0,0-.07-0.49,2.006,2.006,0,0,0-.21-0.49,1,1,0,0,0-.43-0.41,1.58,1.58,0,0,0-.71-0.15c-0.98,0-1.47.66-1.47,2v3.82c0,1.33.5,2,1.5,2a1.567,1.567,0,0,0,.6-0.11,1.382,1.382,0,0,0,.39-0.25,1.228,1.228,0,0,0,.22-0.38,2.232,2.232,0,0,0,.13-0.4c0.01-.1.03-0.23,0.05-0.4a0.191,0.191,0,0,1,.16-0.22c0.11,0,.17.12,0.17,0.35a1.946,1.946,0,0,1-.47,1.28,1.756,1.756,0,0,1-2.59-.04A2.8,2.8,0,0,1,1860.06,4682.58Zm9.63,2.16a0.148,0.148,0,0,1,.01-0.07l1.97-8.24a0.173,0.173,0,0,1,.16-0.17,0.181,0.181,0,0,1,.17.17l1.95,8.24c0,0.01.01,0.02,0.01,0.03v0.03a0.174,0.174,0,0,1-.05.14,0.176,0.176,0,0,1-.13.06,0.152,0.152,0,0,1-.14-0.15l-0.47-1.93h-2.74l-0.45,1.91a0.165,0.165,0,0,1-.15.17C1869.74,4684.93,1869.69,4684.87,1869.69,4684.74Zm0.84-2.31h2.54l-1.26-5.38Zm9.86,2.29v-8.19a0.161,0.161,0,0,1,.16-0.2,0.7,0.7,0,0,1,.28.43l2.78,7.12v-7.35a0.166,0.166,0,0,1,.16-0.2,0.168,0.168,0,0,1,.17.2v8.19a0.172,0.172,0,0,1-.17.21,0.678,0.678,0,0,1-.26-0.42l-2.79-7.14v7.35a0.172,0.172,0,0,1-.17.21C1880.44,4684.93,1880.39,4684.86,1880.39,4684.72Zm9.97,0.02c0-.03.01-0.05,0.01-0.07l1.97-8.24a0.181,0.181,0,0,1,.17-0.17,0.189,0.189,0,0,1,.17.17l1.95,8.24v0.03a0.049,0.049,0,0,1,.01.03,0.182,0.182,0,0,1-.06.14,0.143,0.143,0,0,1-.12.06,0.16,0.16,0,0,1-.15-0.15l-0.46-1.93h-2.74l-0.45,1.91a0.173,0.173,0,0,1-.15.17C1890.41,4684.93,1890.36,4684.87,1890.36,4684.74Zm0.85-2.31h2.54l-1.26-5.38Zm9.86,2.3v-8.18c0-.14.05-0.22,0.16-0.22h1.36a2.033,2.033,0,0,1,1.38.42,1.979,1.979,0,0,1,.48,1.55,3.391,3.391,0,0,1-.21,1.26,1.337,1.337,0,0,1-.56.71,2.146,2.146,0,0,1,.93,2.07v0.2a2.811,2.811,0,0,1-.48,1.82,1.634,1.634,0,0,1-1.3.57h-1.6A0.161,0.161,0,0,1,1901.07,4684.73Zm0.32-4.67h1.26a1.445,1.445,0,0,0,1.13-.39,2.059,2.059,0,0,0,.34-1.37,1.508,1.508,0,0,0-.38-1.22,1.711,1.711,0,0,0-1.13-.32h-1.22v3.3Zm0,4.45h1.44c0.97,0,1.46-.66,1.46-1.97v-0.2a2.218,2.218,0,0,0-.37-1.42,1.353,1.353,0,0,0-1.09-.43h-1.44v4.02Zm9.38,0.23a0.148,0.148,0,0,1,.01-0.07l1.97-8.24a0.173,0.173,0,0,1,.16-0.17,0.181,0.181,0,0,1,.17.17l1.95,8.24a0.037,0.037,0,0,0,.01.03v0.03a0.217,0.217,0,0,1-.05.14,0.176,0.176,0,0,1-.13.06,0.152,0.152,0,0,1-.14-0.15l-0.47-1.93h-2.74l-0.45,1.91a0.165,0.165,0,0,1-.15.17C1910.82,4684.93,1910.77,4684.87,1910.77,4684.74Zm0.84-2.31h2.54l-1.26-5.38Zm9.86,2.29v-8.19a0.181,0.181,0,0,1,.16-0.2h1.52a1.815,1.815,0,0,1,1.35.53,2.439,2.439,0,0,1,.52,1.72c0,1.33-.51,2.08-1.53,2.23l1.5,3.78a0.345,0.345,0,0,1,.03.13,0.246,0.246,0,0,1-.05.15,0.13,0.13,0,0,1-.18.04,0.218,0.218,0,0,1-.07-0.09c-0.02-.04-0.04-0.07-0.05-0.09l-0.03-.13a0.244,0.244,0,0,0-.05-0.09l-1.45-3.67h-1.34v3.88a0.172,0.172,0,0,1-.17.21C1921.52,4684.93,1921.47,4684.86,1921.47,4684.72Zm0.33-4.31h1.35a1.455,1.455,0,0,0,1.13-.44,2.024,2.024,0,0,0,.41-1.39,1.979,1.979,0,0,0-.41-1.38,1.455,1.455,0,0,0-1.13-.44h-1.35v3.65Zm9.73,4.31v-8.19a0.188,0.188,0,0,1,.17-0.2h1.51a1.838,1.838,0,0,1,1.36.53,2.439,2.439,0,0,1,.51,1.72c0,1.33-.51,2.08-1.52,2.23l1.5,3.78a0.688,0.688,0,0,1,.02.13,0.241,0.241,0,0,1-.04.15,0.143,0.143,0,0,1-.12.06,0.145,0.145,0,0,1-.07-0.02,0.349,0.349,0,0,1-.06-0.09c-0.02-.04-0.04-0.07-0.05-0.09l-0.04-.13a0.411,0.411,0,0,0-.04-0.09l-1.46-3.67h-1.34v3.88c0,0.14-.05.21-0.16,0.21A0.172,0.172,0,0,1,1931.53,4684.72Zm0.33-4.31h1.35a1.441,1.441,0,0,0,1.13-.44,1.975,1.975,0,0,0,.42-1.39,1.931,1.931,0,0,0-.42-1.38,1.441,1.441,0,0,0-1.13-.44h-1.35v3.65Zm9.68,2.17v-3.82a2.856,2.856,0,0,1,.48-1.84,1.705,1.705,0,0,1,2.58,0,2.852,2.852,0,0,1,.49,1.84v3.82a2.871,2.871,0,0,1-.49,1.84,1.725,1.725,0,0,1-2.58,0A2.875,2.875,0,0,1,1941.54,4682.58Zm0.32,0a2.59,2.59,0,0,0,.37,1.5,1.406,1.406,0,0,0,2.15,0,2.513,2.513,0,0,0,.38-1.5v-3.82a2.471,2.471,0,0,0-.38-1.5,1.406,1.406,0,0,0-2.15,0,2.547,2.547,0,0,0-.37,1.5v3.82Zm9.55-5.76a0.332,0.332,0,0,1-.05-0.2,0.315,0.315,0,0,1,.05-0.2,0.162,0.162,0,0,1,.14-0.09h3.59c0.13,0,.19.1,0.19,0.28s-0.06.29-.19,0.29h-1.56v7.77a0.22,0.22,0,0,1-.23.26,0.214,0.214,0,0,1-.22-0.26v-7.77h-1.58A0.172,0.172,0,0,1,1951.41,4676.82Zm10.22,7.85v-8.08a0.214,0.214,0,0,1,.22-0.26h3.23c0.13,0,.19.1,0.19,0.28a0.455,0.455,0,0,1-.05.2,0.174,0.174,0,0,1-.14.09h-3v3.46h1.45a0.137,0.137,0,0,1,.13.08,0.317,0.317,0,0,1,.06.2,0.21,0.21,0,0,1-.19.26h-1.45v3.47h3a0.187,0.187,0,0,1,.14.08,0.465,0.465,0,0,1,.05.21c0,0.18-.06.27-0.19,0.27h-3.23A0.214,0.214,0,0,1,1961.63,4684.67Zm10.01,0v-8.09a0.231,0.231,0,1,1,.46,0v8.09A0.232,0.232,0,1,1,1971.64,4684.67Zm6.85-.02a1.174,1.174,0,0,1,.04-0.16l1.56-3.86-1.53-3.84a0.487,0.487,0,0,1-.06-0.22,0.23,0.23,0,0,1,.26-0.25,0.538,0.538,0,0,1,.29.41l1.31,3.33,1.33-3.33a0.545,0.545,0,0,1,.04-0.1l0.05-.12a0.378,0.378,0,0,0,.05-0.08,0.2,0.2,0,0,1,.08-0.08,0.108,0.108,0,0,1,.07-0.03,0.222,0.222,0,0,1,.25.25,0.466,0.466,0,0,1-.05.22l-1.54,3.84,1.57,3.86a0.8,0.8,0,0,1,.03.16,0.288,0.288,0,0,1-.07.2,0.242,0.242,0,0,1-.18.09,0.127,0.127,0,0,1-.06-0.01c-0.01-.02-0.03-0.03-0.04-0.05l-0.05-.04a0.574,0.574,0,0,0-.04-0.07,0.45,0.45,0,0,1-.02-0.08,0.556,0.556,0,0,1-.04-0.08c-0.01-.04-0.02-0.06-0.02-0.07l-1.36-3.36-1.34,3.36a0.26,0.26,0,0,1-.03.07c-0.01.04-.03,0.07-0.03,0.08a0.2,0.2,0,0,1-.03.08,0.161,0.161,0,0,1-.04.07l-0.03.04a0.1,0.1,0,0,1-.05.04,0.073,0.073,0,0,1-.06.02,0.223,0.223,0,0,1-.17-0.09A0.266,0.266,0,0,1,1978.49,4684.65Zm10.15,0.02v-8.08a0.214,0.214,0,0,1,.22-0.26h3.23c0.13,0,.19.1,0.19,0.28a0.455,0.455,0,0,1-.05.2,0.162,0.162,0,0,1-.14.09h-2.99v3.46h1.44a0.161,0.161,0,0,1,.14.08,0.394,0.394,0,0,1,.05.2c0,0.17-.06.26-0.19,0.26h-1.44v3.47h2.99a0.172,0.172,0,0,1,.14.08,0.465,0.465,0,0,1,.05.21c0,0.18-.06.27-0.19,0.27h-3.23A0.214,0.214,0,0,1,1988.64,4684.67Zm10.01,0v-8.09a0.231,0.231,0,1,1,.46,0v8.09A0.232,0.232,0,1,1,1998.65,4684.67Zm7.34,0v-8.09a0.231,0.231,0,0,1,.05-0.17,0.19,0.19,0,0,1,.15-0.08h1.55a1.838,1.838,0,0,1,1.38.54,2.4,2.4,0,0,1,.53,1.75c0,1.31-.49,2.06-1.48,2.24l1.46,3.65a0.59,0.59,0,0,1,.02.14,0.338,0.338,0,0,1-.06.2,0.227,0.227,0,0,1-.18.09,0.623,0.623,0,0,1-.28-0.41l-1.43-3.61h-1.26v3.75a0.22,0.22,0,0,1-.23.26A0.214,0.214,0,0,1,2005.99,4684.67Zm0.45-4.29h1.3c0.97,0,1.46-.58,1.46-1.75,0-1.15-.49-1.73-1.46-1.73h-1.3v3.48Zm9.17,4.29a0.148,0.148,0,0,1,.01-0.07l1.94-8.12a0.237,0.237,0,0,1,.24-0.22,0.248,0.248,0,0,1,.25.22l1.94,8.19,0.01,0.02v0.04a0.187,0.187,0,0,1-.08.14,0.323,0.323,0,0,1-.18.06,0.179,0.179,0,0,1-.18-0.18l-0.45-1.87h-2.61l-0.44,1.87a0.2,0.2,0,0,1-.2.18,0.241,0.241,0,0,1-.18-0.07A0.249,0.249,0,0,1,2015.61,4684.67Zm1.01-2.33h2.36l-1.17-5.02Z" transform="translate(-1749.97 -4621.97)"/>
  <path id="Symbol" class="cls-2" d="M1824.2,4686a1.428,1.428,0,0,0-1.11-.09,1.511,1.511,0,0,0-.85.74,1.532,1.532,0,0,0-.09,1.15,1.461,1.461,0,0,0,1.39,1.03,1.408,1.408,0,0,0,.45-0.07A1.512,1.512,0,0,0,1824.2,4686Zm0-8.54a1.428,1.428,0,0,0-1.11-.09,1.5,1.5,0,0,0-.94,1.88,1.47,1.47,0,0,0,1.39,1.04,1.423,1.423,0,0,0,.45-0.08,1.5,1.5,0,0,0,.94-1.88A1.468,1.468,0,0,0,1824.2,4677.46Zm-0.66-5.72a1.408,1.408,0,0,0,.45-0.07,1.475,1.475,0,0,0,.85-0.74,1.506,1.506,0,0,0,.09-1.14,1.468,1.468,0,0,0-.73-0.87,1.388,1.388,0,0,0-1.11-.1,1.508,1.508,0,0,0-.94,1.89A1.461,1.461,0,0,0,1823.54,4671.74Zm0.66-11.37a1.428,1.428,0,0,0-1.11-.09,1.5,1.5,0,0,0-.94,1.88,1.47,1.47,0,0,0,1.39,1.04,1.423,1.423,0,0,0,.45-0.08,1.5,1.5,0,0,0,.94-1.88A1.468,1.468,0,0,0,1824.2,4660.37Zm0-8.54a1.388,1.388,0,0,0-1.11-.1,1.518,1.518,0,0,0-.94,1.89,1.461,1.461,0,0,0,1.39,1.03,1.408,1.408,0,0,0,.45-0.07,1.505,1.505,0,0,0,.94-1.88A1.468,1.468,0,0,0,1824.2,4651.83Zm-0.66-5.72a1.756,1.756,0,0,0,.45-0.07h0a1.516,1.516,0,0,0,.94-1.89,1.468,1.468,0,0,0-.73-0.87,1.428,1.428,0,0,0-1.11-.09,1.475,1.475,0,0,0-.85.74,1.506,1.506,0,0,0-.09,1.14A1.47,1.47,0,0,0,1823.54,4646.11Zm-51.64,21.42a2.676,2.676,0,0,0,1.19.29,2.614,2.614,0,0,0,2.34-1.46,2.722,2.722,0,0,0-1.14-3.61,2.6,2.6,0,0,0-3.53,1.17A2.734,2.734,0,0,0,1771.9,4667.53Zm-4.99.71a2.062,2.062,0,0,0-2.81.93,2.161,2.161,0,0,0,.91,2.88,2,2,0,0,0,.95.24,2.119,2.119,0,0,0,1.86-1.17,2.149,2.149,0,0,0,.13-1.63A2.089,2.089,0,0,0,1766.91,4668.24Zm-1.96,13.19a2.029,2.029,0,0,0,.95.24,2.118,2.118,0,0,0,1.87-1.17,2.158,2.158,0,0,0-.91-2.88,2.027,2.027,0,0,0-1.6-.13,2.089,2.089,0,0,0-1.22,1.06,2.2,2.2,0,0,0-.13,1.63A2.159,2.159,0,0,0,1764.95,4681.43Zm1.95,4h0a2.076,2.076,0,0,0-2.82.93,2.149,2.149,0,0,0-.13,1.63,2.089,2.089,0,0,0,1.04,1.25,2,2,0,0,0,.95.24,2.112,2.112,0,0,0,.65-0.11,2.089,2.089,0,0,0,1.22-1.06,2.2,2.2,0,0,0,.13-1.63A2.159,2.159,0,0,0,1766.9,4685.43Zm0,8.36a2.031,2.031,0,0,0-1.6-.13,2.06,2.06,0,0,0-1.22,1.06,2.149,2.149,0,0,0-.13,1.63,2.089,2.089,0,0,0,1.04,1.25,2,2,0,0,0,.95.24,2.112,2.112,0,0,0,.65-0.11,2.089,2.089,0,0,0,1.22-1.06,2.218,2.218,0,0,0,.13-1.64A2.17,2.17,0,0,0,1766.9,4693.79Zm7.2-4.16h0a2.073,2.073,0,0,0-2.82.93,2.149,2.149,0,0,0-.13,1.63,2.089,2.089,0,0,0,1.04,1.25,2.029,2.029,0,0,0,.95.24,2.1,2.1,0,0,0,1.87-1.17,2.2,2.2,0,0,0,.13-1.63A2.159,2.159,0,0,0,1774.1,4689.63Zm0-34.46a2.031,2.031,0,0,0-1.6-.13,2.06,2.06,0,0,0-1.22,1.06,2.149,2.149,0,0,0-.13,1.63,2.089,2.089,0,0,0,1.04,1.25,2,2,0,0,0,.95.24,2.112,2.112,0,0,0,.65-0.11,2.089,2.089,0,0,0,1.22-1.06,2.2,2.2,0,0,0,.13-1.63A2.159,2.159,0,0,0,1774.1,4655.17Zm-2.09-4.3a2.029,2.029,0,0,0,.95.24,2.052,2.052,0,0,0,.65-0.1,2.11,2.11,0,0,0,1.22-1.07,2.2,2.2,0,0,0,.13-1.63,2.089,2.089,0,0,0-1.04-1.25,2.031,2.031,0,0,0-1.6-.13,2.089,2.089,0,0,0-1.22,1.06A2.167,2.167,0,0,0,1772.01,4650.87Zm2.54,29.51a3.05,3.05,0,0,0-4.16,1.38,3.155,3.155,0,0,0-.19,2.41,3.089,3.089,0,0,0,2.94,2.2,2.93,2.93,0,0,0,.96-0.16,3.092,3.092,0,0,0,1.8-1.57A3.2,3.2,0,0,0,1774.55,4680.38Zm-1.44-2.81a3.026,3.026,0,0,0,1.55-.43,3.223,3.223,0,0,0,1.13-4.33,3.066,3.066,0,0,0-4.23-1.16,3.221,3.221,0,0,0-1.14,4.33A3.1,3.1,0,0,0,1773.11,4677.57Zm-0.42,20.94h0a1.514,1.514,0,0,0-.94,1.88,1.468,1.468,0,0,0,.73.87,1.443,1.443,0,0,0,1.96-.65,1.5,1.5,0,0,0,.09-1.14A1.457,1.457,0,0,0,1772.69,4698.51Zm-5.27-54.36a1.468,1.468,0,0,0-.73-0.87,1.428,1.428,0,0,0-1.11-.09,1.446,1.446,0,0,0-.85.74,1.506,1.506,0,0,0-.09,1.14,1.487,1.487,0,0,0,.72.87,1.449,1.449,0,0,0,.67.17,1.756,1.756,0,0,0,.45-0.07A1.518,1.518,0,0,0,1767.42,4644.15Zm-0.73,7.69a1.428,1.428,0,0,0-1.11-.09,1.446,1.446,0,0,0-.85.74,1.506,1.506,0,0,0-.09,1.14,1.487,1.487,0,0,0,.72.87,1.449,1.449,0,0,0,.67.17,1.756,1.756,0,0,0,.45-0.07,1.518,1.518,0,0,0,.94-1.89A1.468,1.468,0,0,0,1766.69,4651.84Zm-1.33,11.12a1.449,1.449,0,0,0,.67.17,1.423,1.423,0,0,0,.45-0.08,1.442,1.442,0,0,0,.85-0.74,1.51,1.51,0,0,0-.64-2.01,1.428,1.428,0,0,0-1.11-.09,1.446,1.446,0,0,0-.85.74A1.51,1.51,0,0,0,1765.36,4662.96Zm0-25.41a1.438,1.438,0,0,0,.67.16,1.408,1.408,0,0,0,.45-0.07,1.475,1.475,0,0,0,.85-0.74,1.5,1.5,0,0,0-.64-2.01,1.386,1.386,0,0,0-1.11-.09,1.414,1.414,0,0,0-.85.74A1.516,1.516,0,0,0,1765.36,4637.55Zm7.12,4.24a1.446,1.446,0,0,0,1.96-.65,1.506,1.506,0,0,0,.09-1.14,1.452,1.452,0,0,0-.72-0.87,1.41,1.41,0,0,0-1.12-.09,1.442,1.442,0,0,0-.85.74,1.5,1.5,0,0,0-.09,1.14A1.468,1.468,0,0,0,1772.48,4641.79Zm0-8.53a1.419,1.419,0,0,0,1.96-.65,1.507,1.507,0,0,0-.63-2.01,1.459,1.459,0,0,0-1.97.65,1.506,1.506,0,0,0-.09,1.14A1.468,1.468,0,0,0,1772.48,4633.26Zm-12.9,56.68a1.781,1.781,0,0,0-1.34-.11,1.806,1.806,0,0,0-.26,3.3,1.755,1.755,0,0,0,.8.2,1.7,1.7,0,0,0,.54-0.09,1.784,1.784,0,0,0,1.02-.89A1.82,1.82,0,0,0,1759.58,4689.94Zm-8.12-46.86a1.5,1.5,0,1,0,1.46,1.5A1.477,1.477,0,0,0,1751.46,4643.08Zm0,8.57a1.5,1.5,0,1,0,1.46,1.5A1.477,1.477,0,0,0,1751.46,4651.65Zm-0.45,8.65h0a1.475,1.475,0,0,0-.85.74,1.506,1.506,0,0,0-.09,1.14,1.479,1.479,0,0,0,1.39,1.04,1.423,1.423,0,0,0,.45-0.08,1.493,1.493,0,0,0,.94-1.88A1.461,1.461,0,0,0,1751.01,4660.3Zm-0.21,11.28a1.37,1.37,0,0,0,.66.16,1.408,1.408,0,0,0,.45-0.07,1.475,1.475,0,0,0,.85-0.74,1.506,1.506,0,0,0,.09-1.14,1.458,1.458,0,0,0-1.84-.97,1.518,1.518,0,0,0-.94,1.89A1.468,1.468,0,0,0,1750.8,4671.58Zm1.33,5.88a1.451,1.451,0,0,0-1.97.65,1.506,1.506,0,0,0-.09,1.14,1.468,1.468,0,0,0,.73.87,1.379,1.379,0,0,0,.66.17,1.423,1.423,0,0,0,.45-0.08A1.508,1.508,0,0,0,1752.13,4677.46Zm0,8.54a1.456,1.456,0,0,0-1.12-.09,1.518,1.518,0,0,0-.94,1.89,1.47,1.47,0,0,0,1.39,1.03,1.408,1.408,0,0,0,.45-0.07,1.5,1.5,0,0,0,.94-1.88A1.537,1.537,0,0,0,1752.13,4686Zm6.56-1.36a1.423,1.423,0,0,0,.45-0.08,1.493,1.493,0,0,0,.94-1.88,1.448,1.448,0,0,0-1.84-.96h0a1.514,1.514,0,0,0-.94,1.88A1.479,1.479,0,0,0,1758.69,4684.64Zm-0.66-34.36h0a1.427,1.427,0,0,0,.66.16,1.455,1.455,0,0,0,1.3-.81,1.515,1.515,0,0,0-.63-2.02,1.456,1.456,0,0,0-1.12-.09,1.518,1.518,0,0,0-.94,1.89A1.468,1.468,0,0,0,1758.03,4650.28Zm0-8.49h0a1.446,1.446,0,0,0,1.96-.65,1.5,1.5,0,0,0-.63-2.01,1.413,1.413,0,0,0-1.12-.09,1.442,1.442,0,0,0-.85.74,1.5,1.5,0,0,0-.09,1.14A1.468,1.468,0,0,0,1758.03,4641.79Zm0,16.62h0a1.427,1.427,0,0,0,.66.16,1.455,1.455,0,0,0,1.3-.81,1.515,1.515,0,0,0-.63-2.02,1.453,1.453,0,0,0-1.12-.09,1.511,1.511,0,0,0-.85.74A1.528,1.528,0,0,0,1758.03,4658.41Zm0,8.21h0a1.427,1.427,0,0,0,.66.16,1.455,1.455,0,0,0,1.3-.81,1.5,1.5,0,0,0-.63-2.01,1.412,1.412,0,0,0-1.12-.1,1.492,1.492,0,0,0-.85.75A1.519,1.519,0,0,0,1758.03,4666.62Zm0.66,9.2a1.447,1.447,0,0,0,1.3-.82,1.5,1.5,0,0,0,.09-1.14,1.448,1.448,0,0,0-1.84-.96,1.475,1.475,0,0,0-.85.74,1.506,1.506,0,0,0-.09,1.14,1.468,1.468,0,0,0,.73.87h0A1.326,1.326,0,0,0,1758.69,4675.82Zm22.62-32.98a2.073,2.073,0,0,0-2.82.93,2.149,2.149,0,0,0-.13,1.63,2.089,2.089,0,0,0,1.04,1.25,2,2,0,0,0,.95.24,2.112,2.112,0,0,0,.65-0.11,2.089,2.089,0,0,0,1.22-1.06,2.147,2.147,0,0,0,.12-1.63A2.108,2.108,0,0,0,1781.31,4642.84Zm-1.98-4.58a2.029,2.029,0,0,0,.95.24,2.063,2.063,0,0,0,.65-0.11,2.093,2.093,0,0,0,1.22-1.06,2.218,2.218,0,0,0,.13-1.64,2.147,2.147,0,0,0-1.04-1.25,2.074,2.074,0,0,0-1.6-.13,2.14,2.14,0,0,0-1.22,1.07A2.17,2.17,0,0,0,1779.33,4638.26Zm14.46,0a2.029,2.029,0,0,0,.95.24,2.063,2.063,0,0,0,.65-0.11,2.093,2.093,0,0,0,1.22-1.06,2.218,2.218,0,0,0,.13-1.64,2.147,2.147,0,0,0-1.04-1.25,2.074,2.074,0,0,0-1.6-.13,2.14,2.14,0,0,0-1.22,1.07A2.17,2.17,0,0,0,1793.79,4638.26Zm0.92,8.63a2.037,2.037,0,0,0,.89-0.21,2.164,2.164,0,0,0,1.01-2.84,2.073,2.073,0,0,0-2.79-1.03,2.161,2.161,0,0,0-1.01,2.84A2.108,2.108,0,0,0,1794.71,4646.89Zm-7.9-12.94a2.173,2.173,0,0,0,.71.13,2.005,2.005,0,0,0,.89-0.21,2.082,2.082,0,0,0,1.08-1.21,2.215,2.215,0,0,0-.07-1.64,2.075,2.075,0,0,0-1.19-1.1,2.026,2.026,0,0,0-1.6.07,2.146,2.146,0,0,0-1.08,1.21,2.168,2.168,0,0,0,.08,1.64A2.077,2.077,0,0,0,1786.81,4633.95Zm-0.18,47.21a2.169,2.169,0,0,0-1,2.85,2.029,2.029,0,0,0,1.18,1.1,1.939,1.939,0,0,0,.71.13,1.994,1.994,0,0,0,.89-0.2,2.082,2.082,0,0,0,1.08-1.21,2.215,2.215,0,0,0-.07-1.64A2.081,2.081,0,0,0,1786.63,4681.16Zm7.14,4.24h0a2.169,2.169,0,0,0-1,2.85,2.077,2.077,0,0,0,1.9,1.23,1.982,1.982,0,0,0,.88-0.2,2.082,2.082,0,0,0,1.08-1.21,2.167,2.167,0,0,0-.07-1.64A2.081,2.081,0,0,0,1793.77,4685.4Zm-14.25,0a2.164,2.164,0,0,0-1.01,2.85,2.108,2.108,0,0,0,1.19,1.1,1.939,1.939,0,0,0,.71.13,2.037,2.037,0,0,0,.89-0.21,2.115,2.115,0,0,0,1.08-1.21,2.143,2.143,0,0,0-.08-1.63A2.065,2.065,0,0,0,1779.52,4685.4Zm-0.78-9.35a3.216,3.216,0,0,0-1.14,4.33,3.108,3.108,0,0,0,2.69,1.58,3.051,3.051,0,0,0,1.54-.42,3.221,3.221,0,0,0,1.14-4.33A3.052,3.052,0,0,0,1778.74,4676.05Zm0-8.52a3.221,3.221,0,0,0-1.14,4.33,3.1,3.1,0,0,0,2.69,1.59,2.965,2.965,0,0,0,1.54-.43,3.216,3.216,0,0,0,1.14-4.33A3.069,3.069,0,0,0,1778.74,4667.53Zm0.15-8.47a3.216,3.216,0,0,0-1.13,4.33,3.081,3.081,0,0,0,2.68,1.59,2.974,2.974,0,0,0,1.55-.43,3.213,3.213,0,0,0,1.13-4.33A3.066,3.066,0,0,0,1778.89,4659.06Zm7.81,1.57a2.757,2.757,0,0,0,.8.11,3.06,3.06,0,0,0,1.55-.42,3.209,3.209,0,0,0,1.13-4.33h0a3.058,3.058,0,0,0-1.88-1.48,2.986,2.986,0,0,0-2.35.32,3.2,3.2,0,0,0-1.13,4.33A3.077,3.077,0,0,0,1786.7,4660.63Zm7.77,4.3a2.979,2.979,0,0,0,1.54-.42,3.219,3.219,0,0,0,1.14-4.33,3.063,3.063,0,0,0-4.24-1.16,3.223,3.223,0,0,0-1.13,4.33A3.1,3.1,0,0,0,1794.47,4664.93Zm0.12,8.74a2.965,2.965,0,0,0,1.54-.43,3.135,3.135,0,0,0,1.45-1.92,3.265,3.265,0,0,0-.31-2.41,3.069,3.069,0,0,0-4.23-1.16,3.183,3.183,0,0,0-1.45,1.93,3.234,3.234,0,0,0,.31,2.4A3.1,3.1,0,0,0,1794.59,4673.67Zm-8.61-1.63a3.177,3.177,0,0,0-1.44,1.93,3.24,3.24,0,0,0,.31,2.4,3.085,3.085,0,0,0,2.69,1.59,3.018,3.018,0,0,0,1.54-.43,3.162,3.162,0,0,0,1.45-1.92,3.259,3.259,0,0,0-.31-2.41A3.08,3.08,0,0,0,1785.98,4672.04Zm7.22,4.22a3.155,3.155,0,0,0-1.45,1.93,3.24,3.24,0,0,0,.31,2.4,3.087,3.087,0,0,0,2.69,1.58,2.954,2.954,0,0,0,1.54-.42,3.219,3.219,0,0,0,1.14-4.33A3.069,3.069,0,0,0,1793.2,4676.26Zm1.47-19.79a2.979,2.979,0,0,0,1.54-.42,3.155,3.155,0,0,0,1.45-1.93,3.24,3.24,0,0,0-.31-2.4,3.149,3.149,0,0,0-1.88-1.48,3.052,3.052,0,0,0-2.36.32,3.225,3.225,0,0,0-1.13,4.33A3.1,3.1,0,0,0,1794.67,4656.47Zm-8-12.84a3.224,3.224,0,0,0,.81.11,3.008,3.008,0,0,0,1.54-.43,3.219,3.219,0,0,0,1.14-4.33,3.071,3.071,0,0,0-4.23-1.16,3.162,3.162,0,0,0-1.45,1.92,3.259,3.259,0,0,0,.31,2.41A3.121,3.121,0,0,0,1786.67,4643.63Zm0,8.81a3.224,3.224,0,0,0,.81.11,2.914,2.914,0,0,0,1.54-.43,3.216,3.216,0,0,0,1.14-4.33,3.1,3.1,0,0,0-1.88-1.47,3.019,3.019,0,0,0-2.35.31,3.183,3.183,0,0,0-1.45,1.93,3.234,3.234,0,0,0,.31,2.4A3.085,3.085,0,0,0,1786.67,4652.44Zm-6.38,4.03a2.954,2.954,0,0,0,1.54-.42,3.219,3.219,0,0,0,1.14-4.33,3.069,3.069,0,0,0-4.23-1.16,3.219,3.219,0,0,0-1.14,4.33A3.108,3.108,0,0,0,1780.29,4656.47Zm7.9,33.74a1.415,1.415,0,0,0-1.12-.1,1.508,1.508,0,0,0-.94,1.89,1.468,1.468,0,0,0,.73.87,1.37,1.37,0,0,0,.66.16,1.408,1.408,0,0,0,.45-0.07A1.508,1.508,0,0,0,1788.19,4690.21Zm-1.12,8.3h0a1.5,1.5,0,0,0-.94,1.88,1.468,1.468,0,0,0,.73.87,1.379,1.379,0,0,0,.66.17,1.423,1.423,0,0,0,.45-0.08,1.442,1.442,0,0,0,.85-0.74,1.5,1.5,0,0,0,.09-1.14A1.461,1.461,0,0,0,1787.07,4698.51Zm1.12,8.66a1.456,1.456,0,0,0-1.12-.09,1.5,1.5,0,0,0-.94,1.88,1.517,1.517,0,0,0,.73.88,1.494,1.494,0,0,0,.66.16,1.408,1.408,0,0,0,.45-0.07,1.511,1.511,0,0,0,.85-0.74,1.532,1.532,0,0,0,.09-1.15A1.487,1.487,0,0,0,1788.19,4707.17Zm-7.17-12.81a1.456,1.456,0,0,0-1.12-.09,1.475,1.475,0,0,0-.85.74,1.506,1.506,0,0,0-.09,1.14,1.467,1.467,0,0,0,1.39,1.04,1.408,1.408,0,0,0,.45-0.07,1.508,1.508,0,0,0,.94-1.89A1.452,1.452,0,0,0,1781.02,4694.36Zm13.21-.09a1.446,1.446,0,0,0-.85.74,1.506,1.506,0,0,0-.09,1.14,1.458,1.458,0,0,0,1.39,1.04,1.408,1.408,0,0,0,.45-0.07,1.518,1.518,0,0,0,.94-1.89A1.465,1.465,0,0,0,1794.23,4694.27Zm-13.21,8.62a1.456,1.456,0,0,0-1.12-.09,1.475,1.475,0,0,0-.85.74,1.506,1.506,0,0,0-.09,1.14,1.467,1.467,0,0,0,1.39,1.04,1.408,1.408,0,0,0,.45-0.07,1.508,1.508,0,0,0,.94-1.89A1.452,1.452,0,0,0,1781.02,4702.89Zm13.21-.09a1.446,1.446,0,0,0-.85.74,1.506,1.506,0,0,0-.09,1.14,1.487,1.487,0,0,0,.72.87,1.449,1.449,0,0,0,.67.17,1.408,1.408,0,0,0,.45-0.07,1.518,1.518,0,0,0,.94-1.89A1.465,1.465,0,0,0,1794.23,4702.8Zm-0.22-73.65h0a1.438,1.438,0,0,0,.67.16,1.408,1.408,0,0,0,.45-0.07,1.475,1.475,0,0,0,.85-0.74,1.506,1.506,0,0,0,.09-1.14,1.468,1.468,0,0,0-.73-0.87,1.431,1.431,0,0,0-1.96.65A1.516,1.516,0,0,0,1794.01,4629.15Zm-14.32,0h0a1.427,1.427,0,0,0,.66.16,1.466,1.466,0,0,0,1.3-.81,1.5,1.5,0,0,0-.63-2.01,1.443,1.443,0,0,0-1.97.65A1.519,1.519,0,0,0,1779.69,4629.15Zm8.5,35.26a1.459,1.459,0,0,0-1.97.65,1.506,1.506,0,0,0-.09,1.14,1.468,1.468,0,0,0,.73.87,1.379,1.379,0,0,0,.66.17,1.423,1.423,0,0,0,.45-0.08,1.442,1.442,0,0,0,.85-0.74,1.5,1.5,0,0,0,.09-1.14A1.487,1.487,0,0,0,1788.19,4664.41Zm-1.33-39.58a1.37,1.37,0,0,0,.66.16,1.408,1.408,0,0,0,.45-0.07,1.5,1.5,0,0,0,.94-1.88,1.537,1.537,0,0,0-.72-0.88,1.456,1.456,0,0,0-1.12-.09,1.511,1.511,0,0,0-.85.74,1.532,1.532,0,0,0-.09,1.15A1.468,1.468,0,0,0,1786.86,4624.83Zm13.81,42.7a2.644,2.644,0,0,0,1.19.29,2.5,2.5,0,0,0,.81-0.13,2.609,2.609,0,0,0,1.53-1.33,2.722,2.722,0,0,0-1.14-3.61,2.6,2.6,0,0,0-3.53,1.17A2.725,2.725,0,0,0,1800.67,4667.53Zm9.5,26.26a2.031,2.031,0,0,0-1.6-.13,2.06,2.06,0,0,0-1.22,1.06,2.2,2.2,0,0,0-.13,1.63,2.089,2.089,0,0,0,1.04,1.25,2.029,2.029,0,0,0,.95.24,2.063,2.063,0,0,0,.65-0.11,2.089,2.089,0,0,0,1.22-1.06,2.218,2.218,0,0,0,.13-1.64A2.133,2.133,0,0,0,1810.17,4693.79Zm-8.23-42.7a2.164,2.164,0,0,0,.88-0.2,2.177,2.177,0,0,0,1.01-2.85,2.073,2.073,0,0,0-2.79-1.03,2.169,2.169,0,0,0-1,2.85A2.094,2.094,0,0,0,1801.94,4651.09Zm-0.77,8a2,2,0,0,0,1.6-.08h0a2.155,2.155,0,0,0,1.01-2.84,2.073,2.073,0,0,0-2.79-1.03,2.16,2.16,0,0,0-1,2.84A2.1,2.1,0,0,0,1801.17,4659.09Zm7.26,13.11a2.161,2.161,0,0,0,.71.12,1.994,1.994,0,0,0,.89-0.2,2.115,2.115,0,0,0,1.08-1.21,2.168,2.168,0,0,0-.08-1.64,2.078,2.078,0,0,0-2.78-1.03,2.082,2.082,0,0,0-1.08,1.21,2.215,2.215,0,0,0,.07,1.64A2.125,2.125,0,0,0,1808.43,4672.2Zm-5.54,17.42h0a2.033,2.033,0,0,0-1.6-.14,2.11,2.11,0,0,0-1.22,1.07,2.161,2.161,0,0,0,.91,2.88,2.029,2.029,0,0,0,.95.24,2.1,2.1,0,0,0,1.87-1.17A2.176,2.176,0,0,0,1802.89,4689.62Zm7.28-4.19a2.074,2.074,0,0,0-1.6-.13,2.11,2.11,0,0,0-1.22,1.07,2.192,2.192,0,0,0-.13,1.63,2.118,2.118,0,0,0,1.04,1.25,2.144,2.144,0,0,0,.95.23,2.052,2.052,0,0,0,.65-0.1,2.123,2.123,0,0,0,1.22-1.06A2.178,2.178,0,0,0,1810.17,4685.43Zm-2.02-4.06a2.154,2.154,0,0,0,.96.23,2.035,2.035,0,0,0,.64-0.1,2.11,2.11,0,0,0,1.22-1.07,2.149,2.149,0,0,0,.13-1.63,2.118,2.118,0,0,0-1.04-1.25,2.076,2.076,0,0,0-2.82.93,2.168,2.168,0,0,0-.12,1.64A2.137,2.137,0,0,0,1808.15,4681.37Zm-7.95-.92a3.216,3.216,0,0,0-1.13,4.33,3.058,3.058,0,0,0,1.88,1.48,3.209,3.209,0,0,0,.8.11,2.974,2.974,0,0,0,1.55-.43,3.2,3.2,0,0,0,1.13-4.33A3.066,3.066,0,0,0,1800.2,4680.45Zm2.53-9.27a3.028,3.028,0,0,0-2.35.32,3.216,3.216,0,0,0-1.13,4.33,3.093,3.093,0,0,0,1.88,1.48,3.224,3.224,0,0,0,.81.11,3.062,3.062,0,0,0,1.54-.43,3.111,3.111,0,0,0,1.44-1.92,3.167,3.167,0,0,0-.31-2.41A3.093,3.093,0,0,0,1802.73,4671.18Zm14.3,18.76a1.726,1.726,0,0,0-2.35.78,1.811,1.811,0,0,0,.76,2.41,1.726,1.726,0,0,0,2.35-.78,1.832,1.832,0,0,0,.11-1.36A1.784,1.784,0,0,0,1817.03,4689.94Zm-0.68-5.3a1.414,1.414,0,0,0,.44-0.08,1.493,1.493,0,0,0,.94-1.88,1.448,1.448,0,0,0-1.84-.96h0a1.514,1.514,0,0,0-.94,1.88A1.482,1.482,0,0,0,1816.35,4684.64Zm-14.91,13.87h0a1.505,1.505,0,0,0-.94,1.88,1.468,1.468,0,0,0,.73.87,1.443,1.443,0,0,0,1.96-.65,1.5,1.5,0,0,0,.09-1.14A1.461,1.461,0,0,0,1801.44,4698.51Zm9.09-54.36a1.468,1.468,0,0,0-.73-0.87,1.448,1.448,0,0,0-1.96.65,1.506,1.506,0,0,0-.09,1.14,1.487,1.487,0,0,0,.72.87,1.449,1.449,0,0,0,.67.17,1.756,1.756,0,0,0,.45-0.07A1.518,1.518,0,0,0,1810.53,4644.15Zm-2.06-6.6a1.438,1.438,0,0,0,.67.16,1.408,1.408,0,0,0,.45-0.07,1.475,1.475,0,0,0,.85-0.74,1.5,1.5,0,0,0-.64-2.01,1.431,1.431,0,0,0-1.96.65A1.516,1.516,0,0,0,1808.47,4637.55Zm1.33,14.29a1.448,1.448,0,0,0-1.96.65,1.506,1.506,0,0,0-.09,1.14,1.487,1.487,0,0,0,.72.87,1.449,1.449,0,0,0,.67.17,1.756,1.756,0,0,0,.45-0.07,1.518,1.518,0,0,0,.94-1.89A1.468,1.468,0,0,0,1809.8,4651.84Zm-1.33,11.12a1.449,1.449,0,0,0,.67.17,1.423,1.423,0,0,0,.45-0.08,1.442,1.442,0,0,0,.85-0.74,1.51,1.51,0,0,0-.64-2.01,1.448,1.448,0,0,0-1.96.65A1.51,1.51,0,0,0,1808.47,4662.96Zm7.21-12.68a1.457,1.457,0,0,0,1.11.09,1.446,1.446,0,0,0,.85-0.74,1.515,1.515,0,0,0-.63-2.02,1.456,1.456,0,0,0-1.12-.09,1.492,1.492,0,0,0-.85.75,1.55,1.55,0,0,0-.09,1.14A1.468,1.468,0,0,0,1815.68,4650.28Zm-14.45-8.49a1.457,1.457,0,0,0,1.11.09,1.446,1.446,0,0,0,.85-0.74,1.5,1.5,0,0,0-.63-2.01,1.413,1.413,0,0,0-1.12-.09,1.442,1.442,0,0,0-.85.74,1.5,1.5,0,0,0-.09,1.14A1.468,1.468,0,0,0,1801.23,4641.79Zm14.45,16.62h0a1.457,1.457,0,0,0,1.11.09,1.446,1.446,0,0,0,.85-0.74,1.515,1.515,0,0,0-.63-2.02,1.453,1.453,0,0,0-1.12-.09,1.511,1.511,0,0,0-.85.74A1.528,1.528,0,0,0,1815.68,4658.41Zm0,8.21h0a1.457,1.457,0,0,0,1.11.09,1.446,1.446,0,0,0,.85-0.74,1.5,1.5,0,0,0-.63-2.01,1.412,1.412,0,0,0-1.12-.1,1.492,1.492,0,0,0-.85.75A1.519,1.519,0,0,0,1815.68,4666.62Zm1.33,6.37a1.456,1.456,0,0,0-1.12-.09,1.475,1.475,0,0,0-.85.74,1.554,1.554,0,0,0-.09,1.14,1.468,1.468,0,0,0,.73.87,1.41,1.41,0,0,0,1.11.1,1.462,1.462,0,0,0,.85-0.75,1.5,1.5,0,0,0,.09-1.14A1.452,1.452,0,0,0,1817.01,4672.99Zm-15.78-39.73a1.443,1.443,0,0,0,1.96-.65,1.507,1.507,0,0,0-.63-2.01,1.456,1.456,0,0,0-1.12-.09,1.475,1.475,0,0,0-.85.74,1.506,1.506,0,0,0-.09,1.14A1.468,1.468,0,0,0,1801.23,4633.26Zm14.45,8.53a1.457,1.457,0,0,0,1.11.09,1.446,1.446,0,0,0,.85-0.74,1.5,1.5,0,0,0-.63-2.01,1.413,1.413,0,0,0-1.12-.09,1.442,1.442,0,0,0-.85.74,1.55,1.55,0,0,0-.09,1.14A1.468,1.468,0,0,0,1815.68,4641.79Z" transform="translate(-1749.97 -4621.97)"/>
</svg>
