<svg id="Layer_1" data-name="Layer 1" xmlns="http://www.w3.org/2000/svg" viewBox="0 0 561.99 648.98"><defs><style>.cls-1{fill:#2b2b2b;}</style></defs><title>Artboard 1</title><path class="cls-1" d="M556,472a10.91,10.91,0,0,0-14.73,4.8,11,11,0,0,0,9.76,16,10.82,10.82,0,0,0,3.36-.54,11.05,11.05,0,0,0,7-13.88A10.93,10.93,0,0,0,556,472Zm0-63a10.82,10.82,0,0,0-8.35-.67A11,11,0,0,0,551,429.85a10.86,10.86,0,0,0,3.36-.53,11.05,11.05,0,0,0,7-13.88A10.93,10.93,0,0,0,556,409Zm-15.4-49.8A11,11,0,0,0,551,366.84a10.93,10.93,0,0,0,9.74-6A11.07,11.07,0,0,0,556,346a10.8,10.8,0,0,0-8.35-.67A11.06,11.06,0,0,0,540.62,359.2ZM551,303.82a10.82,10.82,0,0,0,3.36-.54,11.05,11.05,0,0,0,7-13.88A10.93,10.93,0,0,0,556,283a10.82,10.82,0,0,0-8.35-.67A11,11,0,0,0,551,303.82Zm0-63a10.91,10.91,0,0,0,3.36-.53,11.06,11.06,0,0,0,7-13.88A10.93,10.93,0,0,0,556,220a10.91,10.91,0,0,0-14.73,4.79,11,11,0,0,0,9.76,16Zm0-63a10.82,10.82,0,0,0,3.36-.54h0a11.06,11.06,0,0,0,7-13.88,10.93,10.93,0,0,0-5.43-6.43,10.92,10.92,0,0,0-14.73,4.8,11,11,0,0,0,9.76,16Zm-386.92,158a19.39,19.39,0,0,0,8.91,2.17,19.64,19.64,0,0,0,17.51-10.76A19.86,19.86,0,0,0,182,300.54a19.59,19.59,0,0,0-26.42,8.6A19.86,19.86,0,0,0,164.13,335.74ZM126.74,341a15.63,15.63,0,0,0-21.11,6.87,15.85,15.85,0,0,0,6.82,21.26,15.63,15.63,0,0,0,21.11-6.87A15.85,15.85,0,0,0,126.74,341Zm-14.68,97.3a15.64,15.64,0,0,0,21.11-6.87,15.87,15.87,0,0,0-6.83-21.26A15.63,15.63,0,0,0,105.23,417a15.85,15.85,0,0,0,6.82,21.26Zm14.56,29.48h0A15.85,15.85,0,1,0,134.4,477,15.65,15.65,0,0,0,126.61,467.77Zm0,61.64a15.63,15.63,0,0,0-21.11,6.87,15.85,15.85,0,0,0,6.82,21.26,15.63,15.63,0,0,0,21.11-6.87,15.85,15.85,0,0,0-6.82-21.26Zm54-30.66h0a15.78,15.78,0,0,0-14.28,28.14,15.49,15.49,0,0,0,7.11,1.73,15.82,15.82,0,0,0,7.17-29.86Zm0-254.14a15.63,15.63,0,0,0-21.11,6.87,15.85,15.85,0,0,0,6.82,21.26,15.63,15.63,0,0,0,21.11-6.87,15.85,15.85,0,0,0-6.82-21.26ZM165,212.95a15.63,15.63,0,0,0,21.11-6.87,15.85,15.85,0,0,0-6.82-21.26,15.64,15.64,0,0,0-21.11,6.87A15.87,15.87,0,0,0,165,212.95Zm19,217.57A23.43,23.43,0,1,0,194.09,462,23.48,23.48,0,0,0,184,430.52Zm-10.8-20.73a23,23,0,0,0,11.57-3.13,23.49,23.49,0,0,0,8.5-31.93,23.15,23.15,0,0,0-31.71-8.56,23.49,23.49,0,0,0-8.5,31.93A23.2,23.2,0,0,0,173.19,409.79Zm-3.13,154.45h0a11.06,11.06,0,0,0-7,13.88,10.94,10.94,0,0,0,5.43,6.43,10.91,10.91,0,0,0,14.73-4.8,11,11,0,0,0-13.11-15.51ZM115.12,176.58a10.82,10.82,0,0,0,5,1.22,11,11,0,0,0,5-20.85,10.91,10.91,0,0,0-14.73,4.8,11.06,11.06,0,0,0,4.76,14.83Zm15.4,49.92a10.92,10.92,0,0,0-5.43-6.43,10.91,10.91,0,0,0-14.73,4.8,11.06,11.06,0,0,0,4.76,14.83,10.91,10.91,0,0,0,14.73-4.8A11,11,0,0,0,130.52,226.5Zm-5.43,56a10.91,10.91,0,0,0-14.73,4.8,11.08,11.08,0,0,0,4.76,14.83,10.82,10.82,0,0,0,5,1.22,11,11,0,0,0,9.76-6A11.08,11.08,0,0,0,125.09,282.46Zm-10-167.79a10.82,10.82,0,0,0,5,1.22,11,11,0,0,0,5-20.85,10.91,10.91,0,0,0-14.73,4.8A11.08,11.08,0,0,0,115.12,114.67Zm53.32,31.28a10.81,10.81,0,0,0,5,1.21,11,11,0,0,0,5-20.84,10.91,10.91,0,0,0-14.73,4.8,11.06,11.06,0,0,0,4.76,14.84Zm0-62.89a10.81,10.81,0,0,0,5,1.21,11,11,0,0,0,9.77-6,11.08,11.08,0,0,0-4.77-14.84,11,11,0,0,0-10,19.63Zm-96.67,418a13.05,13.05,0,0,0-17.63,5.74,13.26,13.26,0,0,0,5.7,17.75,13.05,13.05,0,0,0,17.63-5.74A13.25,13.25,0,0,0,71.77,501.07ZM11,177.52A11,11,0,1,0,0,166.5,11,11,0,0,0,11,177.52Zm0,63.22A11,11,0,1,0,0,229.72,11,11,0,0,0,11,240.74ZM11,304a10.84,10.84,0,0,0,3.36-.54,11,11,0,0,0-6.73-21h0a10.9,10.9,0,0,0-6.38,5.47A11,11,0,0,0,11,304ZM7.59,345.32a10.89,10.89,0,0,0-6.38,5.47A11.06,11.06,0,0,0,6,365.63a10.91,10.91,0,0,0,14.73-4.8A11,11,0,0,0,7.59,345.32ZM15.94,409a10.91,10.91,0,0,0-14.73,4.8A11.06,11.06,0,0,0,6,428.64a10.81,10.81,0,0,0,5,1.22,10.93,10.93,0,0,0,3.38-.54,11.05,11.05,0,0,0,7-13.88A10.93,10.93,0,0,0,15.94,409Zm0,63a10.79,10.79,0,0,0-8.35-.68,10.9,10.9,0,0,0-6.38,5.47,11,11,0,0,0,9.75,16,10.83,10.83,0,0,0,3.36-.54,11.05,11.05,0,0,0,7-13.88A10.93,10.93,0,0,0,15.94,472Zm54.19-30.93a10.81,10.81,0,0,0-8.35-.68h0a11,11,0,0,0,3.38,21.52,10.93,10.93,0,0,0,3.36-.53,11.06,11.06,0,0,0,7-13.88A10.93,10.93,0,0,0,70.13,441.09Zm-10-232.55h0a10.91,10.91,0,0,0,14.73-4.8,11.07,11.07,0,0,0-4.76-14.83,10.91,10.91,0,0,0-14.73,4.8,11,11,0,0,0-.67,8.41A10.92,10.92,0,0,0,60.16,208.54Zm0-62.59h0a10.91,10.91,0,0,0,14.73-4.8,11.07,11.07,0,0,0-4.76-14.83,10.91,10.91,0,0,0-14.73,4.8,11.06,11.06,0,0,0,4.76,14.84Zm10,102.91a10.91,10.91,0,0,0-14.73,4.8,11.08,11.08,0,0,0,4.76,14.83h0a10.83,10.83,0,0,0,5,1.21,11,11,0,0,0,9.77-6A11.08,11.08,0,0,0,70.13,248.86Zm0,60.56a10.91,10.91,0,0,0-14.73,4.8A11.08,11.08,0,0,0,60.16,329h0a10.83,10.83,0,0,0,5,1.21,11,11,0,0,0,9.77-6A11.08,11.08,0,0,0,70.13,309.41Zm-10,86.28h0a10.83,10.83,0,0,0,5,1.21,11,11,0,0,0,5-20.84,10.91,10.91,0,0,0-14.73,4.8,11,11,0,0,0-.67,8.41A10.92,10.92,0,0,0,60.16,395.69Zm174.43-242a15.85,15.85,0,1,0,7.79,9.21A15.65,15.65,0,0,0,234.59,153.67ZM219.8,119.91A15.63,15.63,0,0,0,240.91,113a15.85,15.85,0,0,0-6.82-21.26A15.63,15.63,0,0,0,213,98.65,15.87,15.87,0,0,0,219.8,119.91Zm108.35,0A15.63,15.63,0,0,0,349.26,113a15.86,15.86,0,0,0-6.83-21.26,15.63,15.63,0,0,0-21.11,6.87A15.87,15.87,0,0,0,328.15,119.91Zm6.9,63.62a15.49,15.49,0,0,0,6.64-1.49,15.87,15.87,0,0,0,7.54-21,15.66,15.66,0,0,0-20.87-7.6,15.87,15.87,0,0,0-7.54,21A15.71,15.71,0,0,0,335.05,183.54ZM275.82,88.11a15.66,15.66,0,0,0,20.09-9.49,15.8,15.8,0,0,0-.55-12.08,15.65,15.65,0,0,0-29,1.34A15.8,15.8,0,0,0,266.95,80,15.63,15.63,0,0,0,275.82,88.11ZM274.49,436.3a15.87,15.87,0,0,0-7.54,21,15.65,15.65,0,0,0,29-1.34,15.75,15.75,0,0,0-21.41-19.68ZM328,467.57h0a15.86,15.86,0,0,0-7.54,21,15.7,15.7,0,0,0,14.23,9.09,15.5,15.5,0,0,0,6.64-1.49A15.78,15.78,0,0,0,328,467.57Zm-106.82,0a15.87,15.87,0,0,0-7.54,21,15.65,15.65,0,0,0,29-1.34,15.75,15.75,0,0,0-21.41-19.68Zm-5.85-69a23.5,23.5,0,0,0-8.5,31.93A23.2,23.2,0,0,0,227,442.19a22.94,22.94,0,0,0,11.56-3.13,23.5,23.5,0,0,0,8.5-31.93A23.15,23.15,0,0,0,215.34,398.58Zm0-62.79a23.49,23.49,0,0,0-8.5,31.93A23.2,23.2,0,0,0,227,379.41a22.94,22.94,0,0,0,11.57-3.13,23.49,23.49,0,0,0,8.5-31.93A23.15,23.15,0,0,0,215.34,335.79Zm1.14-62.46A23.38,23.38,0,0,0,228.12,317a23,23,0,0,0,11.57-3.14,23.5,23.5,0,0,0,8.5-31.93A23.15,23.15,0,0,0,216.48,273.34ZM275,284.92a23.2,23.2,0,0,0,6,.81,23,23,0,0,0,11.57-3.14,23.49,23.49,0,0,0,8.5-31.93h0a23.12,23.12,0,0,0-31.71-8.55A23.5,23.5,0,0,0,260.9,274,23.08,23.08,0,0,0,275,284.92Zm58.23,31.7a23,23,0,0,0,11.56-3.13,23.49,23.49,0,0,0,8.5-31.93A23.15,23.15,0,0,0,321.57,273a23.49,23.49,0,0,0-8.5,31.93A23.2,23.2,0,0,0,333.22,316.62Zm.91,64.42a22.94,22.94,0,0,0,11.57-3.13A23.12,23.12,0,1,0,334.13,381Zm-64.48-12a23.39,23.39,0,0,0,11.64,43.62,23,23,0,0,0,11.57-3.13A23.34,23.34,0,0,0,269.64,369Zm54,31.12a23.39,23.39,0,0,0,11.65,43.62,22.94,22.94,0,0,0,11.56-3.13,23.5,23.5,0,0,0,8.5-31.93A23.15,23.15,0,0,0,323.69,400.16Zm11-145.93a23,23,0,0,0,11.57-3.13,23.43,23.43,0,0,0-5.6-42.82,22.92,22.92,0,0,0-17.61,2.34,23.49,23.49,0,0,0-8.5,31.93A23.2,23.2,0,0,0,334.71,254.24Zm-59.9-94.74a22.94,22.94,0,0,0,17.61-2.34,23.5,23.5,0,0,0,8.5-31.93,23.25,23.25,0,1,0-26.11,34.27Zm0,65a23.18,23.18,0,0,0,6,.81,22.94,22.94,0,0,0,11.57-3.14,23.5,23.5,0,0,0,8.5-31.93,23.17,23.17,0,0,0-42.52,5.64,23.37,23.37,0,0,0,2.32,17.74A23.08,23.08,0,0,0,274.81,224.49ZM227,254.24a22.94,22.94,0,0,0,11.57-3.13,23.49,23.49,0,0,0,8.5-31.93,23.15,23.15,0,0,0-31.71-8.56,23.49,23.49,0,0,0-8.5,31.93A23.2,23.2,0,0,0,227,254.24Zm49.19,268.4a10.79,10.79,0,0,0,8.35.67,11.05,11.05,0,0,0,7.05-13.88,10.94,10.94,0,0,0-5.43-6.42,10.78,10.78,0,0,0-8.35-.67,11.05,11.05,0,0,0-7,13.88A10.93,10.93,0,0,0,276.17,522.63Zm1.62,41.6h0a11.06,11.06,0,0,0-7,13.88,10.94,10.94,0,0,0,5.43,6.43,10.91,10.91,0,0,0,14.73-4.8,11,11,0,0,0-13.11-15.51Zm8.35,63.9a10.79,10.79,0,0,0-8.35-.67,11.05,11.05,0,0,0-7,13.88,11,11,0,1,0,15.4-13.21Zm-53.71-94.47a10.91,10.91,0,0,0-14.73,4.8,11,11,0,0,0,9.76,16,10.82,10.82,0,0,0,3.36-.54,11.05,11.05,0,0,0,7-13.88A10.93,10.93,0,0,0,232.43,533.66Zm99-.67a10.89,10.89,0,0,0-6.38,5.47,11,11,0,0,0,9.75,16,10.93,10.93,0,0,0,9.74-6A11,11,0,0,0,331.42,533Zm-99,63.58a10.91,10.91,0,0,0-14.73,4.8,11,11,0,0,0,9.75,16,10.84,10.84,0,0,0,3.36-.54,11.06,11.06,0,0,0,7-13.88A10.93,10.93,0,0,0,232.43,596.57Zm99-.68a10.89,10.89,0,0,0-6.38,5.47,11.07,11.07,0,0,0,4.76,14.84,10.91,10.91,0,0,0,14.73-4.8,11,11,0,0,0-13.11-15.51ZM329.8,52.72h0a10.91,10.91,0,0,0,14.73-4.79,11,11,0,1,0-14.73,4.79Zm-107.34,0h0a10.79,10.79,0,0,0,5,1.21,11,11,0,0,0,9.77-6,11.08,11.08,0,0,0-4.76-14.83,10.92,10.92,0,0,0-14.73,4.8A11.08,11.08,0,0,0,222.46,52.72Zm63.68,260.06a11.06,11.06,0,1,0,5.43,6.43A10.92,10.92,0,0,0,286.14,312.78Zm-10-291.93a10.91,10.91,0,0,0,14.73-4.8,11.06,11.06,0,0,0-4.76-14.83A10.91,10.91,0,0,0,271.41,6a11.06,11.06,0,0,0,4.76,14.84ZM379.7,335.74a19.56,19.56,0,0,0,26.42-8.6,19.86,19.86,0,0,0-8.54-26.6,19.58,19.58,0,0,0-26.41,8.6A19.86,19.86,0,0,0,379.7,335.74Zm71.16,193.67a15.63,15.63,0,0,0-21.11,6.87,15.85,15.85,0,0,0,6.83,21.26,15.5,15.5,0,0,0,7.13,1.74,15.82,15.82,0,0,0,7.16-29.87ZM389.17,214.52a15.67,15.67,0,0,0,14.73-10.43,15.65,15.65,0,1,0-14.73,10.43Zm-5.72,59a15.49,15.49,0,0,0,12-.55h0A15.87,15.87,0,0,0,403,252a15.66,15.66,0,0,0-20.86-7.59,15.87,15.87,0,0,0-7.54,21A15.62,15.62,0,0,0,383.45,273.53Zm54.37,96.65a15.66,15.66,0,0,0,20.09-9.49,15.79,15.79,0,0,0-.55-12.08,15.71,15.71,0,1,0-19.54,21.57ZM396.28,498.65h0a15.63,15.63,0,0,0-21.11,6.88A15.87,15.87,0,0,0,382,526.79a15.49,15.49,0,0,0,7.11,1.73,15.69,15.69,0,0,0,14-8.61A15.87,15.87,0,0,0,396.28,498.65Zm54.57-30.85a15.63,15.63,0,0,0-21.11,6.87,15.85,15.85,0,0,0,6.83,21.26,15.5,15.5,0,0,0,7.13,1.74,15.69,15.69,0,0,0,14-8.61A15.87,15.87,0,0,0,450.85,467.81Zm-15.08-30a15.63,15.63,0,0,0,21.11-6.87,15.65,15.65,0,1,0-21.11,6.87Zm-59.6-6.73a23.38,23.38,0,0,0,11.64,43.63,23,23,0,0,0,11.57-3.14,23.5,23.5,0,0,0,8.5-31.93A23.15,23.15,0,0,0,376.17,431.09Zm19-68.37a22.93,22.93,0,0,0-17.61,2.34A23.49,23.49,0,0,0,369,397a23.17,23.17,0,0,0,42.52-5.64,23.36,23.36,0,0,0-2.32-17.74A23.06,23.06,0,0,0,395.15,362.72ZM502.27,501.07a13.05,13.05,0,0,0-17.63,5.74,13.26,13.26,0,0,0,5.7,17.75A13.05,13.05,0,0,0,508,518.82a13.24,13.24,0,0,0-5.7-17.75Zm-.16-60a10.81,10.81,0,0,0-8.35-.67h0a11,11,0,0,0,3.38,21.52,10.93,10.93,0,0,0,3.36-.53,11.06,11.06,0,0,0,7-13.88A11,11,0,0,0,502.11,441.09ZM385.48,564.24h0a11.06,11.06,0,0,0-7,13.88,10.94,10.94,0,0,0,5.43,6.42,10.91,10.91,0,0,0,14.73-4.8,11,11,0,0,0-13.11-15.51Zm52.68-387.66a10.82,10.82,0,0,0,5,1.22,11,11,0,1,0-5-1.22Zm0-61.91a10.82,10.82,0,0,0,5,1.22,11,11,0,1,0-5-1.22Zm15.4,111.83a11,11,0,1,0-.67,8.41A10.93,10.93,0,0,0,453.56,226.5Zm-5.43,56a10.93,10.93,0,0,0-14.73,4.8,11.08,11.08,0,0,0,4.76,14.83,10.82,10.82,0,0,0,5,1.22,11,11,0,0,0,9.76-6A11.08,11.08,0,0,0,448.13,282.46Zm44-73.92a10.91,10.91,0,0,0,14.73-4.8,11.07,11.07,0,0,0-4.76-14.83,10.91,10.91,0,0,0-14.73,4.8,11.06,11.06,0,0,0,4.76,14.84ZM383.86,145.95a10.91,10.91,0,0,0,14.73-4.8,11.07,11.07,0,0,0-4.76-14.83,10.91,10.91,0,0,0-14.73,4.8,11.06,11.06,0,0,0,4.76,14.84ZM502.11,248.86a10.91,10.91,0,0,0-14.73,4.8,11.08,11.08,0,0,0,4.76,14.83h0a10.8,10.8,0,0,0,5,1.21,10.95,10.95,0,0,0,9.76-6A11.08,11.08,0,0,0,502.11,248.86Zm0,60.56a10.91,10.91,0,0,0-14.73,4.8A11.08,11.08,0,0,0,492.14,329h0a10.81,10.81,0,0,0,5,1.21,10.95,10.95,0,0,0,9.76-6A11.08,11.08,0,0,0,502.11,309.41Zm-10,86.28a10.81,10.81,0,0,0,5,1.21,11,11,0,0,0,5-20.85,10.91,10.91,0,0,0-14.73,4.8,11.06,11.06,0,0,0,4.76,14.84ZM383.86,83.06a10.82,10.82,0,0,0,5,1.22,11,11,0,0,0,9.76-6,11.08,11.08,0,0,0-4.76-14.84,10.91,10.91,0,0,0-14.73,4.8,11.06,11.06,0,0,0,4.76,14.84Zm108.28,62.89a10.91,10.91,0,0,0,14.73-4.8,11.07,11.07,0,0,0-4.76-14.83,10.91,10.91,0,0,0-14.73,4.8,11.06,11.06,0,0,0,4.76,14.84Z"/></svg>